<?xml version="1.0" encoding="UTF-8"?><svg id="Ebene_1" xmlns="http://www.w3.org/2000/svg" viewBox="0 0 115.25 37.18"><defs><style>.cls-1{fill:#0d456b;}</style></defs><path class="cls-1" d="M83.58,17.84c-2.33-.09-2.62-1.8-2.7-2.32h7.18c0-2.96-1.48-4.86-4.56-4.89-3.02,0-4.54,2.03-4.54,4.34,0,2.56,1.75,4.39,4.68,4.39s3.93-1.73,4.21-2.53h-2.12c-.34,.55-1.09,1.01-2.15,1.01h0Zm-.12-5.69c1.36,0,2.3,.52,2.59,1.91h-5.11c.38-1.57,1.52-1.91,2.51-1.91h0Z"/><path class="cls-1" d="M61.27,17.84c-2.33-.09-2.62-1.8-2.7-2.32h7.18c0-2.96-1.48-4.86-4.56-4.89-3.02,0-4.54,2.03-4.54,4.34,0,2.56,1.75,4.39,4.68,4.39s3.93-1.73,4.21-2.53h-2.12c-.34,.55-1.09,1.01-2.15,1.01h0Zm-.12-5.69c1.36,0,2.3,.52,2.59,1.91h-5.11c.38-1.57,1.52-1.91,2.51-1.91h0Z"/><polygon class="cls-1" points="68.69 8.02 70.57 8.02 70.57 19.1 68.69 19.1 68.69 8.02 68.69 8.02"/><polygon class="cls-1" points="74.14 8.02 76.03 8.02 76.03 19.1 74.14 19.1 74.14 8.02 74.14 8.02"/><path class="cls-1" d="M90.83,10.92h1.86v1.02c.59-.58,1.4-1.3,3.06-1.3s3.2,.72,3.2,3.22v5.24h-1.89v-4.54c0-1.62-.49-2.3-1.75-2.3-1.51,0-2.12,.62-2.59,1.21v5.64h-1.89V10.92h0Z"/><path class="cls-1" d="M101.33,11.19h1.46v-2.67h1.89v2.67h2.85v1.61h-2.85v3.75c0,.58,.23,1.2,1.33,1.2,.37,0,1.13-.09,1.62-.23v1.66c-.93,.12-1.37,.18-2.04,.18-1.8,0-2.79-.58-2.79-2.38v-4.19h-1.46v-1.61h0Z"/><path class="cls-1" d="M28.54,21.29h-3.06l-1.96-2.49-1.96,2.49h-3.05l3.55-4.24-3.7-4.44h3.04l2.12,2.68,2.16-2.68h3.04l-3.7,4.44,3.52,4.24Z"/><path class="cls-1" d="M43.43,17.05h-3.06l-1.96-2.49-1.96,2.49h-3.05l3.55-4.25-3.7-4.44h3.04l2.12,2.68,2.16-2.68h3.04l-3.7,4.44,3.52,4.24Z"/><path class="cls-1" d="M12.24,17.85c-2.33-.09-2.62-1.8-2.7-2.32h7.18c0-2.96-1.48-4.86-4.56-4.89-3.02,0-4.54,2.03-4.54,4.34,0,2.56,1.75,4.39,4.68,4.39s3.93-1.73,4.21-2.53h-2.12c-.34,.55-1.08,1.01-2.15,1.01h0Zm-.12-5.69c1.36,0,2.3,.52,2.59,1.91h-5.11c.38-1.57,1.52-1.91,2.51-1.91h0Z"/><path class="cls-1" d="M49.82,17.76c-1.81,0-2.65-1.31-2.65-2.88,0-1.31,1.02-2.62,2.8-2.62,1.38,0,2.18,.78,2.39,1.43h1.9c-.16-1.38-1.45-3.06-4.41-3.04-2.91,.01-4.6,2.01-4.6,4.16,0,3.29,2.15,4.57,4.77,4.57,2.95,0,4.1-1.98,4.39-3.14h-1.98c-.2,.72-1.02,1.52-2.6,1.52h0Z"/><polygon class="cls-1" points="30.33 8.35 31.64 8.35 31.64 21.28 30.33 21.28 30.33 8.35 30.33 8.35"/><path class="cls-1" d="M61.81,25.72c-.62-.87-1.64-.97-2.11-.97-1.6,0-1.94,.88-1.94,1.31,0,.63,.32,1.13,1.88,1.33,1.01,.14,1.24,.17,1.24,.48,0,.36-.46,.51-.97,.51-.6,0-1.17-.17-1.5-.71l-.81,.47c.35,.44,.8,1,2.22,1,.67,0,2.05-.14,2.05-1.35,0-1.02-1.03-1.19-2.15-1.33-.57-.08-.97-.13-.97-.45,0-.23,.23-.5,.92-.5,.87,0,1.2,.45,1.34,.64l.79-.44h0Z"/><path class="cls-1" d="M66.25,29.15c1.13,0,2.31-.56,2.31-2.2,0-1.1-.67-2.19-2.31-2.19s-2.31,1.09-2.31,2.19c0,1.64,1.18,2.2,2.31,2.2h0Zm0-.81c-.85,0-1.34-.53-1.34-1.4,0-.97,.61-1.36,1.34-1.36s1.34,.4,1.34,1.36c0,.87-.49,1.4-1.34,1.4h0Z"/><polygon class="cls-1" points="71 29.01 71.95 29.01 71.95 23.44 71 23.44 71 29.01 71 29.01"/><path class="cls-1" d="M78.75,24.9h-.95v2.84c-.24,.29-.54,.61-1.3,.61-.64,0-.88-.34-.88-1.16v-2.28h-.95v2.64c0,1.26,.75,1.62,1.61,1.62s1.26-.36,1.54-.65v.51h.94v-4.12h0Z"/><path class="cls-1" d="M80.94,25.85h.74v2.11c0,.9,.5,1.2,1.4,1.2,.34,0,.56-.03,1.03-.09v-.84c-.25,.07-.63,.11-.81,.11-.55,0-.67-.31-.67-.61v-1.89h1.43v-.81h-1.43v-1.34h-.95v1.34h-.74v.81h0Z"/><path class="cls-1" d="M86.48,29.01h.95v-4.12h-.95v4.12h0Zm0-4.87h.95v-.84h-.95v.84h0Z"/><path class="cls-1" d="M92.18,29.15c1.13,0,2.31-.56,2.31-2.2,0-1.1-.67-2.19-2.31-2.19s-2.31,1.09-2.31,2.19c0,1.64,1.18,2.2,2.31,2.2h0Zm0-.81c-.85,0-1.34-.53-1.34-1.4,0-.97,.61-1.36,1.34-1.36s1.34,.4,1.34,1.36c0,.87-.49,1.4-1.34,1.4h0Z"/><path class="cls-1" d="M96.85,29.01h.95v-2.84c.24-.29,.54-.61,1.3-.61,.64,0,.88,.34,.88,1.16v2.28h.95v-2.64c0-1.26-.75-1.62-1.61-1.62s-1.24,.36-1.54,.65v-.51h-.94v4.12h0Z"/><path class="cls-1" d="M107.47,25.72c-.62-.87-1.64-.97-2.11-.97-1.6,0-1.94,.88-1.94,1.31,0,.63,.32,1.13,1.88,1.33,1.01,.14,1.24,.17,1.24,.48,0,.36-.46,.51-.97,.51-.6,0-1.17-.17-1.5-.71l-.81,.47c.35,.44,.8,1,2.22,1,.67,0,2.05-.14,2.05-1.35,0-1.02-1.03-1.19-2.15-1.33-.57-.08-.97-.13-.97-.45,0-.23,.23-.5,.92-.5,.87,0,1.2,.45,1.34,.64l.79-.44h0Z"/></svg>